ply
format ascii 1.0
element vertex 10
comment vertices
property float x
property float y
property float z
end_header
-0.362689703702926636 4.88532876968383789 -1.69381332397460938
-2.3873131275177002 5.08009719848632812 -0.982226073741912842
-0.381439924240112305 3.18008327484130859 -1.27564239501953125
0.544610261917114258 7.00692605972290039 -0.263248533010482788
2.29950213432312012 4.64919948577880859 -1.20660912990570068
-2.1274106502532959 4.24744129180908203 -0.839652419090270996
2.43182039260864258 6.5897974967956543 -1.22198367118835449
0.980176985263824463 6.73786640167236328 0.783018290996551514
-3.66586160659790039 8.10115718841552734 0.0931946039199829102
2.92291975021362305 4.50022602081298828 -0.800649523735046387
